<?xml version="1.0" encoding="UTF-8"?>
<!-- Generated by Pixelmator Pro 3.6.7 -->
<svg width="2000" height="2000" viewBox="0 0 2000 2000" xmlns="http://www.w3.org/2000/svg">
    <path id="Rounded-Rectangle" fill="#0f172a" fill-rule="evenodd" stroke="#0f172a" stroke-width="12.919621" d="M 0.490966 1741.604492 C 0.219813 1884.310425 115.68602 2000.216187 258.391968 2000.487305 L 1741.60437 2003.305542 C 1884.310303 2003.576782 2000.216187 1888.110596 2000.487305 1745.404541 L 2003.305542 262.192139 C 2003.576782 119.486206 1888.110474 3.580322 1745.404541 3.309204 L 262.192108 0.490967 C 119.486176 0.219849 3.580345 115.686035 3.309192 258.391968 Z"/>
    <path id="Oval" fill="#ffffff" fill-rule="evenodd" stroke="none" d="M 1753.269043 563.5 C 1753.269043 475.962891 1685.156128 405 1601.134521 405 C 1517.112915 405 1449 475.962891 1449 563.5 C 1449 651.037109 1517.112915 722 1601.134521 722 C 1685.156128 722 1753.269043 651.037109 1753.269043 563.5 Z"/>
    <path id="D" fill="#ffffff" fill-rule="evenodd" stroke="none" d="M 821.555298 1609.846436 L 651 1610 L 651 1391 L 810.64325 1391.373291 C 886.697205 1391.5177 950.504456 1378.289307 1002.066956 1351.687256 C 1053.629395 1325.085449 1092.544312 1283.357178 1118.812866 1226.501221 C 1145.081299 1169.645264 1158.300415 1096.449097 1158.470581 1006.9104 C 1158.639771 917.911011 1145.69812 845.069702 1119.645264 788.384033 C 1093.592529 731.698486 1054.836182 689.957397 1003.375183 663.15979 C 951.914185 636.362061 888.427368 622.891724 812.912781 622.748169 L 651 622 L 651 404 L 827.891357 404.324097 C 949.254028 404.554688 1053.578491 428.890381 1140.86792 477.331787 C 1228.157349 525.773193 1295.179199 594.94165 1341.935425 684.839233 C 1388.69165 774.736816 1411.950562 882.253174 1411.712769 1007.391541 C 1411.473999 1133.069336 1387.671143 1240.900879 1340.303345 1330.889282 C 1292.935547 1420.877686 1225.246582 1489.925049 1137.234375 1538.033325 C 1049.222046 1586.141602 943.996826 1610.079102 821.555298 1609.846436 Z M 651 404 L 651 1610 L 394.360779 1609.03479 L 396.651398 403.504761 Z"/>
</svg>
